<svg viewBox="0 0 512 512"><path d="M215.8 143.2c0-3.9 0.4-6.2 6.9-6.2h88.2c15.4 0 23.9 13.1 30 37.7l5 19.6h15c2.7-55.8 5-80.1 5-80.1s-37.7 4.2-60.1 4.2H193.1l-60.4-1.9v16.2l20.4 3.9c14.2 2.7 17.7 5.8 18.9 18.9 0 0 1.2 38.5 1.2 102s-1.2 101.6-1.2 101.6c0 11.6-4.6 15.8-18.9 18.5l-20.4 3.9v16.2l60.4-1.9h100.9c22.7 0 75.5 1.9 75.5 1.9 1.2-13.9 8.9-76.6 10-83.5h-14.2L350.1 348.4c-11.9 26.9-29.3 28.9-48.5 28.9h-57.4c-19.2 0-28.5-7.7-28.5-24.3v-87.8c0 0 42.7 0 56.6 1.2 10.8 0.8 17.3 3.9 20.8 18.9l4.6 20h16.6l-1.2-50.4 2.3-50.8h-16.6l-5.4 22.3c-3.5 14.6-5.8 17.3-20.8 18.9 -19.6 1.9-57 1.5-57 1.5V143.2z"/></svg>
